<?xml version="1.0" standalone="no"?>
<!DOCTYPE svg PUBLIC "-//W3C//DTD SVG 1.1//EN" "http://www.w3.org/Graphics/SVG/1.1/DTD/svg11.dtd" >
<!--
2013-9-30: Created.
-->
<svg>
<metadata>
Created by iconfont
</metadata>
<defs>

<font id="iconfont" horiz-adv-x="1024" >
  <font-face
    font-family="iconfont"
    font-weight="500"
    font-stretch="normal"
    units-per-em="1024"
    ascent="896"
    descent="-128"
  />
    <missing-glyph />
    
    <glyph glyph-name="x" unicode="x" horiz-adv-x="1001"
d="M281 543q-27 -1 -53 -1h-83q-18 0 -36.5 -6t-32.5 -18.5t-23 -32t-9 -45.5v-76h912v41q0 16 -0.5 30t-0.5 18q0 13 -5 29t-17 29.5t-31.5 22.5t-49.5 9h-133v-97h-438v97zM955 310v-52q0 -23 0.5 -52t0.5 -58t-10.5 -47.5t-26 -30t-33 -16t-31.5 -4.5q-14 -1 -29.5 -0.5
t-29.5 0.5h-32l-45 128h-439l-44 -128h-29h-34q-20 0 -45 1q-25 0 -41 9.5t-25.5 23t-13.5 29.5t-4 30v167h911zM163 247q-12 0 -21 -8.5t-9 -21.5t9 -21.5t21 -8.5q13 0 22 8.5t9 21.5t-9 21.5t-22 8.5zM316 123q-8 -26 -14 -48q-5 -19 -10.5 -37t-7.5 -25t-3 -15t1 -14.5
t9.5 -10.5t21.5 -4h37h67h81h80h64h36q23 0 34 12t2 38q-5 13 -9.5 30.5t-9.5 34.5q-5 19 -11 39h-368zM336 498v228q0 11 2.5 23t10 21.5t20.5 15.5t34 6h188q31 0 51.5 -14.5t20.5 -52.5v-227h-327z" />
    

    
    <glyph glyph-name="ic_cb" unicode="&#58896;" d="M512 896a512 512 0 1 1 512-512A512 512 0 0 1 512 896z m-77.12-770.24l-22.72 22.72L208.32 352l45.12 45.12 181.12-181.12 316.8 316.8 45.12-45.12z"  horiz-adv-x="1024" />

    
    <glyph glyph-name="ic_cb_uncheck" unicode="&#58931;" d="M512 832c246.4 0 448-201.6 448-448s-201.6-448-448-448S64 137.6 64 384 265.6 832 512 832m0 64C230.4 896 0 665.6 0 384s230.4-512 512-512 512 230.4 512 512S793.6 896 512 896z"  horiz-adv-x="1024" />

    
    <glyph glyph-name="ic_me" unicode="&#58940;" d="M755.2 456.533333h-8.533333c-8.533333 0-21.333333 8.533333-21.333334 17.066667-8.533333 25.6-29.866667 42.666667-59.733333 42.666667-25.6 0-51.2-17.066667-59.733333-42.666667-4.266667-12.8-17.066667-21.333333-29.866667-17.066667s-21.333333 17.066667-17.066667 29.866667c12.8 46.933333 55.466667 76.8 102.4 76.8s89.6-34.133333 102.4-76.8c12.8-12.8 4.266667-25.6-8.533333-29.866667m-238.933333-358.4c-93.866667 0-174.933333 68.266667-187.733334 162.133334-4.266667 17.066667 8.533333 29.866667 25.6 29.866666h324.266667c17.066667 0 25.6-12.8 25.6-29.866666-12.8-89.6-93.866667-162.133333-187.733333-162.133334m-213.333334 375.466667c-4.266667-12.8-17.066667-21.333333-29.866666-17.066667-12.8 4.266667-21.333333 17.066667-17.066667 29.866667 12.8 46.933333 55.466667 76.8 102.4 76.8s89.6-34.133333 102.4-76.8c4.266667-12.8-4.266667-25.6-17.066667-29.866667h-8.533333c-8.533333 0-21.333333 8.533333-21.333333 17.066667-8.533333 25.6-29.866667 42.666667-59.733334 42.666667-21.333333 0-42.666667-17.066667-51.2-42.666667M512 810.666667C277.333333 810.666667 85.333333 618.666667 85.333333 384s192-426.666667 426.666667-426.666667 426.666667 192 426.666667 426.666667S746.666667 810.666667 512 810.666667"  horiz-adv-x="1024" />

    
    <glyph glyph-name="ic_unshow" unicode="&#58944;" d="M149.333333 362.666667c-4.266667 0-12.8 0-17.066666 4.266666-8.533333 8.533333-8.533333 21.333333 0 29.866667l64 64c8.533333 8.533333 21.333333 8.533333 29.866666 0s8.533333-21.333333 0-29.866667l-64-64c0-4.266667-8.533333-4.266667-12.8-4.266666zM298.666667 256c-4.266667 0-8.533333 0-12.8 4.266667-8.533333 4.266667-12.8 17.066667-8.533334 29.866666L341.333333 396.8c4.266667 8.533333 17.066667 12.8 29.866667 8.533333 8.533333-4.266667 12.8-17.066667 8.533333-29.866666l-64-106.666667c-4.266667-8.533333-8.533333-12.8-17.066666-12.8zM874.666667 362.666667c-4.266667 0-12.8 0-17.066667 4.266666l-85.333333 85.333334c-8.533333 8.533333-8.533333 21.333333 0 29.866666s21.333333 8.533333 29.866666 0l85.333334-85.333333c8.533333-8.533333 8.533333-21.333333 0-29.866667 0-4.266667-8.533333-4.266667-12.8-4.266666zM746.666667 277.333333c-8.533333 0-12.8 4.266667-17.066667 8.533334l-64 106.666666c-4.266667 8.533333-4.266667 21.333333 8.533333 29.866667 8.533333 4.266667 21.333333 4.266667 29.866667-8.533333l64-106.666667c4.266667-8.533333 4.266667-21.333333-8.533333-29.866667h-12.8zM533.333333 213.333333c-8.533333 0-21.333333 8.533333-21.333333 17.066667l-21.333333 149.333333c0 12.8 8.533333 21.333333 17.066666 25.6 12.8 0 21.333333-8.533333 25.6-17.066666l21.333334-149.333334c0-12.8-8.533333-25.6-21.333334-25.6zM486.4 362.666667c-132.266667 0-256 46.933333-349.866667 128-8.533333 8.533333-8.533333 21.333333 0 29.866666 8.533333 8.533333 21.333333 8.533333 29.866667 0 85.333333-76.8 200.533333-115.2 324.266667-115.2 128 0 243.2 42.666667 328.533333 123.733334 8.533333 8.533333 21.333333 8.533333 29.866667 0 8.533333-8.533333 8.533333-21.333333 0-29.866667-98.133333-89.6-226.133333-136.533333-362.666667-136.533333z"  horiz-adv-x="1024" />

    
    <glyph glyph-name="ic_show" unicode="&#58945;" d="M512 128c-213.333333 0-405.333333 174.933333-405.333333 256S298.666667 640 512 640s405.333333-174.933333 405.333333-256-192-256-405.333333-256z m0 469.333333c-209.066667 0-362.666667-170.666667-362.666667-213.333333s153.6-213.333333 362.666667-213.333333 362.666667 170.666667 362.666667 213.333333-153.6 213.333333-362.666667 213.333333zM512 213.333333c-106.666667 0-192 76.8-192 170.666667s85.333333 170.666667 192 170.666667 192-76.8 192-170.666667-85.333333-170.666667-192-170.666667z m0 298.666667c-81.066667 0-149.333333-55.466667-149.333333-128s68.266667-128 149.333333-128 149.333333 55.466667 149.333333 128-68.266667 128-149.333333 128z"  horiz-adv-x="1024" />

    
    <glyph glyph-name="ic_delete" unicode="&#58946;" d="M512 384m-426.666667 0a426.666667 426.666667 0 1 1 853.333334 0 426.666667 426.666667 0 1 1-853.333334 0ZM512 392.533333l166.4 166.4 29.866667-29.866666-166.4-166.4 166.4-166.4-29.866667-29.866667-166.4 166.4-166.4-166.4-29.866667 29.866667 166.4 166.4-166.4 166.4 29.866667 29.866666 166.4-166.4z"  horiz-adv-x="1024" />

    
    <glyph glyph-name="ic_shouxin" unicode="&#58947;" d="M445.217391 219.269565v-93.495652c0-26.713043 17.808696-44.521739 44.521739-44.521739h178.086957c26.713043 0 44.521739 17.808696 44.521739 44.521739v93.495652c164.730435 22.26087 316.104348 75.686957 400.695652 115.756522V-38.956522c0-48.973913-40.069565-89.043478-89.043478-89.043478H133.565217c-48.973913 0-89.043478 40.069565-89.043478 89.043478v373.982609c97.947826-40.069565 249.321739-93.495652 400.695652-115.756522z m0 44.521739c-191.443478 31.165217-391.791304 120.208696-445.217391 146.921739V615.513043c0 31.165217 35.617391 48.973913 62.330435 48.973914H1113.043478c31.165217 0 44.521739-22.26087 44.521739-48.973914v-204.8c-40.069565-26.713043-240.417391-115.756522-445.217391-146.921739V317.217391c0 26.713043-17.808696 44.521739-44.521739 44.521739h-178.086957c-26.713043 0-44.521739-17.808696-44.521739-44.521739v-53.426087zM400.695652 802.504348C400.695652 851.478261 458.573913 896 525.356522 896h111.304348C703.443478 896 756.869565 851.478261 756.869565 802.504348V717.913043H400.695652V802.504348zM534.26087 317.217391h89.043478c26.713043 0 44.521739-17.808696 44.521739-44.521739v-89.043478c0-26.713043-17.808696-44.521739-44.521739-44.521739h-89.043478c-26.713043 0-44.521739 17.808696-44.52174 44.521739v89.043478c0 26.713043 17.808696 44.521739 44.52174 44.521739z"  horiz-adv-x="1157" />

    
    <glyph glyph-name="ic_zigu" unicode="&#58948;" d="M574.171429 625.371429l149.942857-541.257143c3.657143-14.628571 0-29.257143-10.971429-36.571429l-179.2-146.285714c-14.628571-10.971429-32.914286-10.971429-47.542857 0l-179.2 146.285714c-10.971429 10.971429-14.628571 25.6-10.971429 36.571429l149.942858 541.257143c3.657143 7.314286 0 14.628571-3.657143 21.942857L303.542857 819.2C292.571429 833.828571 292.571429 855.771429 307.2 870.4c7.314286 3.657143 14.628571 7.314286 21.942857 7.314286h358.4c21.942857 0 36.571429-14.628571 36.571429-36.571429 0-7.314286-3.657143-18.285714-7.314286-21.942857l-138.971429-171.885714c-3.657143-7.314286-3.657143-14.628571-3.657142-21.942857z"  horiz-adv-x="1024" />

    
    <glyph glyph-name="ic_more" unicode="&#58949;" d="M684.8 384l-384 384c-12.8 12.8-12.8 32 0 44.8s32 12.8 44.8 0l409.6-409.6c12.8-12.8 12.8-32 0-44.8l-409.6-409.6c-12.8-12.8-32-12.8-44.8 0s-12.8 32 0 44.8l384 390.4z"  horiz-adv-x="1024" />

    
    <glyph glyph-name="ic_sfxx" unicode="&#58950;" d="M841.142857 713.142857H182.857143c-40.228571 0-73.142857-32.914286-73.142857-73.142857v-512c0-40.228571 32.914286-73.142857 73.142857-73.142857h658.285714c40.228571 0 73.142857 32.914286 73.142857 73.142857V640c0 40.228571-32.914286 73.142857-73.142857 73.142857z m-259.657143-585.142857H223.085714c-3.657143 10.971429-3.657143 25.6-3.657143 36.571429 0 102.4 80.457143 182.857143 182.857143 182.857142-62.171429 0-109.714286 47.542857-109.714285 109.714286s47.542857 109.714286 109.714285 109.714286 109.714286-47.542857 109.714286-109.714286-47.542857-109.714286-109.714286-109.714286c102.4 0 182.857143-80.457143 182.857143-182.857142 0-10.971429 0-25.6-3.657143-36.571429z m186.514286 219.428571h-146.285714c-21.942857 0-36.571429 14.628571-36.571429 36.571429s14.628571 36.571429 36.571429 36.571429h146.285714c21.942857 0 36.571429-14.628571 36.571429-36.571429s-14.628571-36.571429-36.571429-36.571429z m0 146.285715h-146.285714c-21.942857 0-36.571429 14.628571-36.571429 36.571428s14.628571 36.571429 36.571429 36.571429h146.285714c21.942857 0 36.571429-14.628571 36.571429-36.571429s-14.628571-36.571429-36.571429-36.571428z"  horiz-adv-x="1024" />

    
    <glyph glyph-name="ic_gzxx" unicode="&#58951;" d="M475.428571 676.571429h73.142858c21.942857 0 36.571429 14.628571 36.571428 36.571428V786.285714c0 21.942857-14.628571 36.571429-36.571428 36.571429h-73.142858c-21.942857 0-36.571429-14.628571-36.571428-36.571429v-73.142857c0-21.942857 14.628571-36.571429 36.571428-36.571428zM768 749.714286h-146.285714v-54.857143c0-29.257143-25.6-54.857143-54.857143-54.857143h-109.714286c-29.257143 0-54.857143 25.6-54.857143 54.857143V749.714286H256c-40.228571 0-73.142857-32.914286-73.142857-73.142857v-658.285715c0-40.228571 32.914286-73.142857 73.142857-73.142857h512c40.228571 0 73.142857 32.914286 73.142857 73.142857V676.571429c0 40.228571-32.914286 73.142857-73.142857 73.142857z m-146.285714-658.285715h-219.428572c-21.942857 0-36.571429 14.628571-36.571428 36.571429s14.628571 36.571429 36.571428 36.571429h219.428572c21.942857 0 36.571429-14.628571 36.571428-36.571429s-14.628571-36.571429-36.571428-36.571429z m32.914285 146.285715h-285.257142c-3.657143 10.971429-3.657143 25.6-3.657143 36.571428 0 62.171429 36.571429 113.371429 91.428571 135.314286-10.971429 14.628571-18.285714 29.257143-18.285714 47.542857 0 40.228571 32.914286 73.142857 73.142857 73.142857s73.142857-32.914286 73.142857-73.142857c0-18.285714-7.314286-32.914286-18.285714-47.542857 54.857143-21.942857 91.428571-73.142857 91.428571-135.314286 0-10.971429 0-25.6-3.657143-36.571428z"  horiz-adv-x="1024" />

    
    <glyph glyph-name="ic_zlsc" unicode="&#58952;" d="M768 471.771429c0 146.285714-113.371429 259.657143-256 259.657142s-256-117.028571-256-259.657142c-102.4-18.285714-182.857143-106.057143-182.857143-215.771429 0-120.685714 98.742857-219.428571 219.428572-219.428571h475.428571v3.657142c102.4 18.285714 182.857143 106.057143 182.857143 215.771429s-80.457143 197.485714-182.857143 215.771429z m-80.457143-131.657143c-3.657143-3.657143-7.314286-3.657143-14.628571-3.657143h-91.428572V164.57142899999997c0-10.971429-7.314286-18.285714-18.285714-18.285715h-102.4c-10.971429 0-18.285714 7.314286-18.285714 18.285715v168.228571H347.428571c-7.314286 0-18.285714 10.971429-18.285714 18.285714 0 3.657143 3.657143 10.971429 3.657143 14.628572l149.942857 149.942857c14.628571 14.628571 36.571429 14.628571 51.2 0l149.942857-149.942857c10.971429-7.314286 10.971429-18.285714 3.657143-25.6z"  horiz-adv-x="1024" />

    
    <glyph glyph-name="ic_phone" unicode="&#58953;" d="M808.96 61.44l-46.08-35.84c-15.36-15.36-40.96-20.48-66.56-20.48-10.24 0-20.48 0-30.72 5.12-133.12 40.96-261.12 143.36-353.28 286.72C220.16 435.2 184.32 588.8 215.04 711.68c5.12 30.72 30.72 56.32 61.44 66.56L337.92 793.6h10.24c35.84 0 81.92-71.68 97.28-138.24 10.24-46.08 5.12-81.92-10.24-92.16l-51.2-20.48c-35.84-56.32-25.6-133.12 20.48-204.8s117.76-117.76 184.32-122.88h5.12l46.08 30.72c5.12 0 10.24 5.12 15.36 5.12 46.08 0 138.24-76.8 163.84-138.24 0-15.36 5.12-40.96-10.24-51.2z"  horiz-adv-x="1024" />

    
    <glyph glyph-name="ic_customer" unicode="&#58954;" d="M603.428571 775.314286c18.285714 7.314286 40.228571 10.971429 62.171429 10.971428 98.742857 0 179.2-80.457143 179.2-179.2 0-58.514286-25.6-109.714286-69.485714-142.628571 109.714286-43.885714 186.514286-153.6 186.514285-277.942857 0-32.914286-25.6-58.514286-58.514285-58.514286h-128c36.571429 0 65.828571 25.6 65.828571 58.514286 0 124.342857-76.8 234.057143-186.514286 277.942857 40.228571 32.914286 69.485714 84.114286 69.485715 142.628571-3.657143 76.8-51.2 142.628571-120.685715 168.228572zM555.885714 394.971429c135.314286-54.857143 230.4-186.514286 230.4-340.114286 0-40.228571-32.914286-73.142857-73.142857-73.142857h-585.142857c-40.228571 0-73.142857 32.914286-73.142857 73.142857 0 153.6 95.085714 285.257143 230.4 340.114286-51.2 40.228571-84.114286 102.4-84.114286 171.885714 0 120.685714 98.742857 219.428571 219.428572 219.428571s219.428571-98.742857 219.428571-219.428571c0-69.485714-32.914286-131.657143-84.114286-171.885714zM398.628571 347.428571c-7.314286 0-18.285714-7.314286-18.285714-14.628571l-29.257143-201.142857c-3.657143-14.628571 3.657143-25.6 14.628572-36.571429l43.885714-32.914285c7.314286-3.657143 14.628571-3.657143 21.942857 0l43.885714 32.914285c10.971429 7.314286 14.628571 21.942857 14.628572 36.571429l-29.257143 201.142857c0 7.314286-7.314286 14.628571-18.285714 14.628571h-43.885715z"  horiz-adv-x="1024" />

    
    <glyph glyph-name="ic_dkjlcx" unicode="&#58955;" d="M735.085714 365.714286H731.428571c-120.685714 0-219.428571-98.742857-219.428571-219.428572 0-76.8 40.228571-142.628571 98.742857-182.857143H182.857143c-40.228571 0-73.142857 32.914286-73.142857 73.142858v73.142857c0 142.628571 84.114286 266.971429 204.8 329.142857-36.571429 36.571429-58.514286 87.771429-58.514286 146.285714 0 120.685714 98.742857 219.428571 219.428571 219.428572s219.428571-98.742857 219.428572-219.428572c0-58.514286-21.942857-109.714286-58.514286-146.285714 36.571429-18.285714 73.142857-43.885714 98.742857-73.142857zM877.714286-36.571429c-10.971429 0-18.285714 3.657143-25.6 10.971429l-36.571429 36.571429c-14.628571 14.628571-14.628571 36.571429 0 51.2s36.571429 14.628571 51.2 0l36.571429-36.571429c14.628571-14.628571 14.628571-36.571429 0-51.2-7.314286-7.314286-14.628571-10.971429-25.6-10.971429zM731.428571 0c-80.457143 0-146.285714 65.828571-146.285714 146.285714s65.828571 146.285714 146.285714 146.285715 146.285714-65.828571 146.285715-146.285715-65.828571-146.285714-146.285715-146.285714z m0 219.428571c-40.228571 0-73.142857-32.914286-73.142857-73.142857s32.914286-73.142857 73.142857-73.142857 73.142857 32.914286 73.142858 73.142857-32.914286 73.142857-73.142858 73.142857z"  horiz-adv-x="1024" />

    
    <glyph glyph-name="ic_message" unicode="&#58956;" d="M512-18.285713999999984H219.428571c-10.971429 0-18.285714 7.314286-18.285714 18.285714 0 3.657143 0 7.314286 3.657143 10.971429l47.542857 65.828571c-87.771429 73.142857-142.628571 182.857143-142.628571 307.2C109.714286 607.085714 288.914286 786.285714 512 786.285714s402.285714-179.2 402.285714-402.285714-179.2-402.285714-402.285714-402.285714z m164.571429 438.857143c-29.257143 0-54.857143-25.6-54.857143-54.857143s25.6-54.857143 54.857143-54.857143 54.857143 25.6 54.857142 54.857143-25.6 54.857143-54.857142 54.857143z m-182.857143 0c-29.257143 0-54.857143-25.6-54.857143-54.857143s25.6-54.857143 54.857143-54.857143 54.857143 25.6 54.857143 54.857143-25.6 54.857143-54.857143 54.857143z m-182.857143 0c-29.257143 0-54.857143-25.6-54.857143-54.857143S281.6 310.85714299999995 310.857143 310.85714299999995s54.857143 25.6 54.857143 54.857143S340.114286 420.571429 310.857143 420.571429z"  horiz-adv-x="1024" />

    
    <glyph glyph-name="ic_order" unicode="&#58957;" d="M786.285714 146.285714v98.742857c0 14.628571-10.971429 29.257143-29.257143 29.257143s-25.6-10.971429-25.6-29.257143v-128c0-14.628571 10.971429-25.6 29.257143-25.6h91.428572c14.628571 0 25.6 10.971429 25.6 29.257143s-10.971429 29.257143-29.257143 29.257143h-62.171429zM768 384c120.685714 0 219.428571-98.742857 219.428571-219.428571s-98.742857-219.428571-219.428571-219.428572-219.428571 98.742857-219.428571 219.428572 98.742857 219.428571 219.428571 219.428571zM596.114286 402.285714C522.971429 347.428571 475.428571 263.314286 475.428571 164.571429c0-54.857143 14.628571-102.4 40.228572-146.285715H109.714286c-40.228571 0-73.142857 32.914286-73.142857 73.142857 0 153.6 95.085714 285.257143 230.4 340.114286C215.771429 471.771429 182.857143 533.942857 182.857143 603.428571c0 120.685714 98.742857 219.428571 219.428571 219.428572s219.428571-98.742857 219.428572-219.428572c0-69.485714-32.914286-131.657143-84.114286-171.885714 21.942857-7.314286 40.228571-18.285714 58.514286-29.257143z"  horiz-adv-x="1024" />

    
    <glyph glyph-name="ic_defultphoto" unicode="&#58958;" d="M857.6 143.36c-71.68 33.28-43.52 7.68-133.12 43.52S614.4 232.96 614.4 232.96l5.12 61.44s81.92 25.6 97.28 130.56c30.72-7.68 40.96 30.72 43.52 56.32 2.56 25.6 17.92 99.84-20.48 94.72 7.68 51.2 12.8 97.28 10.24 120.32-10.24 84.48-76.8 174.08-245.76 181.76-40.96-2.56-79.36-10.24-112.64-23.04-12.8-5.12-94.72 5.12-104.96-17.92-5.12-12.8 12.8-51.2 2.56-58.88C250.88 742.4 261.12 734.72 256 693.76c-2.56-23.04 2.56-69.12 10.24-120.32-38.4 7.68-20.48-69.12-20.48-94.72 2.56-25.6 12.8-64 43.52-56.32 15.36-104.96 115.2-130.56 115.2-130.56L409.6 230.4s-20.48-12.8-110.08-46.08c-89.6-35.84-61.44-7.68-133.12-40.96C51.2 89.6 51.2-56.32 51.2-56.32c0-23.04 20.48-40.96 43.52-40.96h834.56c23.04 0 43.52 17.92 43.52 40.96 0 0 0 145.92-115.2 199.68z"  horiz-adv-x="1024" />

    
    <glyph glyph-name="ic_delete1" unicode="&#58959;" d="M204.8 588.8h614.4c30.72 0 51.2-20.48 51.2-51.2v-512c0-56.32-46.08-102.4-102.4-102.4H256c-56.32 0-102.4 46.08-102.4 102.4V537.6c0 30.72 20.48 51.2 51.2 51.2z m102.4-153.6c-30.72 0-51.2-20.48-51.2-51.2v-307.2c0-30.72 20.48-51.2 51.2-51.2s51.2 20.48 51.2 51.2v307.2c0 30.72-20.48 51.2-51.2 51.2z m204.8 0c-30.72 0-51.2-20.48-51.2-51.2v-307.2c0-30.72 20.48-51.2 51.2-51.2s51.2 20.48 51.2 51.2v307.2c0 30.72-20.48 51.2-51.2 51.2z m204.8 0c-30.72 0-51.2-20.48-51.2-51.2v-307.2c0-30.72 20.48-51.2 51.2-51.2s51.2 20.48 51.2 51.2v307.2c0 30.72-20.48 51.2-51.2 51.2z m0 307.2h153.6c30.72 0 51.2-20.48 51.2-51.2s-20.48-51.2-51.2-51.2H153.6c-30.72 0-51.2 20.48-51.2 51.2s20.48 51.2 51.2 51.2h153.6c0 56.32 46.08 102.4 102.4 102.4h204.8c56.32 0 102.4-46.08 102.4-102.4z"  horiz-adv-x="1024" />

    
    <glyph glyph-name="ic_sqjl" unicode="&#58960;" d="M874.666667 345.6c-12.8 8.533333-25.6 12.8-38.4 8.533333l-8.533334-4.266666V721.066667c0 34.133333-29.866667 68.266667-72.533333 68.266666H268.8c-38.4 0-72.533333-29.866667-72.533333-68.266666v-366.933334h-8.533334c-12.8 4.266667-29.866667 0-38.4-8.533333-17.066667-12.8-21.333333-21.333333-21.333333-38.4v-260.266667c0-34.133333 29.866667-68.266667 72.533333-68.266666h622.933334c38.4 0 72.533333 29.866667 72.533333 68.266666v260.266667c-4.266667 17.066667-8.533333 25.6-21.333333 38.4zM418.133333 494.933333c-12.8 0-21.333333 8.533333-21.333333 21.333334s8.533333 21.333333 21.333333 21.333333h34.133334L401.066667 605.866667c-8.533333 8.533333-4.266667 21.333333 4.266666 29.866666 8.533333 8.533333 21.333333 8.533333 29.866667-4.266666l72.533333-85.333334 72.533334 85.333334c8.533333 8.533333 25.6 8.533333 34.133333 4.266666 8.533333-8.533333 8.533333-21.333333 4.266667-29.866666l-55.466667-64h34.133333c12.8 0 21.333333-8.533333 21.333334-21.333334s-8.533333-21.333333-21.333334-21.333333h-68.266666v-21.333333H597.333333c12.8 0 21.333333-8.533333 21.333334-21.333334s-8.533333-21.333333-21.333334-21.333333h-68.266666v-64c0-12.8-8.533333-21.333333-21.333334-21.333333s-21.333333 8.533333-21.333333 21.333333v64H418.133333c-12.8 0-21.333333 8.533333-21.333333 21.333333s8.533333 21.333333 21.333333 21.333334h68.266667v17.066666H418.133333z m426.666667-448c0-12.8-12.8-21.333333-25.6-21.333333H200.533333c-12.8 0-25.6 8.533333-25.6 21.333333v260.266667s110.933333-25.6 328.533334-81.066667h8.533333l328.533333 81.066667v-260.266667h4.266667z"  horiz-adv-x="1024" />

    
    <glyph glyph-name="ic_search" unicode="&#58961;" d="M469.333333 42.666667c-213.333333 0-384 170.666667-384 384s170.666667 384 384 384 384-170.666667 384-384-170.666667-384-384-384z m0 682.666666c-166.4 0-298.666667-132.266667-298.666666-298.666666s132.266667-298.666667 298.666666-298.666667 298.666667 132.266667 298.666667 298.666667-132.266667 298.666667-298.666667 298.666666zM896-42.666667c-12.8 0-21.333333 4.266667-29.866667 12.8l-170.666666 170.666667c-17.066667 17.066667-17.066667 42.666667 0 59.733333s42.666667 17.066667 59.733333 0l170.666667-170.666666c17.066667-17.066667 17.066667-42.666667 0-59.733334-8.533333-8.533333-17.066667-12.8-29.866667-12.8z"  horiz-adv-x="1024" />

    
    <glyph glyph-name="ic_glkh" unicode="&#58962;" d="M285.866667 396.8c-55.466667 42.666667-89.6 106.666667-89.6 183.466667 0 128 102.4 234.666667 234.666666 234.666666s234.666667-102.4 234.666667-234.666666c0-72.533333-34.133333-140.8-89.6-183.466667 72.533333-29.866667 136.533333-81.066667 179.2-145.066667-17.066667 4.266667-34.133333 8.533333-51.2 8.533334h-42.666667C554.666667 256 469.333333 170.666667 469.333333 64c0-38.4 12.8-76.8 34.133334-106.666667h-384c-42.666667 0-76.8 34.133333-76.8 76.8 0 162.133333 102.4 302.933333 243.2 362.666667zM866.133333-42.666667h-34.133333c-12.8 0-21.333333 8.533333-21.333333 21.333334s8.533333 21.333333 21.333333 21.333333h34.133333c34.133333 0 64 29.866667 64 64s-25.6 64-64 64h-34.133333c-12.8 0-21.333333 8.533333-21.333333 21.333333s8.533333 21.333333 21.333333 21.333334h34.133333c59.733333 0 106.666667-46.933333 106.666667-106.666667S925.866667-42.666667 866.133333-42.666667zM704-42.666667h-42.666667c-59.733333 0-106.666667 46.933333-106.666666 106.666667s46.933333 106.666667 106.666666 106.666667h42.666667c12.8 0 21.333333-8.533333 21.333333-21.333334s-8.533333-21.333333-21.333333-21.333333h-42.666667c-34.133333 0-64-29.866667-64-64s29.866667-64 64-64h42.666667c12.8 0 21.333333-8.533333 21.333333-21.333333s-8.533333-21.333333-21.333333-21.333334zM832 42.666667h-128c-12.8 0-21.333333 8.533333-21.333333 21.333333s8.533333 21.333333 21.333333 21.333333h128c12.8 0 21.333333-8.533333 21.333333-21.333333s-8.533333-21.333333-21.333333-21.333333z"  horiz-adv-x="1024" />

    
    <glyph glyph-name="ic_phone1" unicode="&#58963;" d="M701.44-51.2c-15.36 0-30.72 0-46.08 5.12-143.36 40.96-286.72 148.48-384 296.96-102.4 148.48-138.24 312.32-107.52 445.44 10.24 46.08 51.2 87.04 102.4 97.28l56.32 15.36C404.48 829.44 465.92 732.16 491.52 640c20.48-66.56 0-122.88-46.08-143.36l-30.72-10.24c-10.24-35.84 0-81.92 30.72-128 35.84-51.2 81.92-87.04 133.12-97.28l30.72 20.48c10.24 5.12 25.6 10.24 40.96 10.24 71.68 0 179.2-92.16 209.92-163.84 25.6-61.44 0-97.28-15.36-107.52l-46.08-35.84c-30.72-25.6-61.44-35.84-97.28-35.84z m-358.4 819.2h-10.24l-56.32-15.36c-30.72-10.24-56.32-35.84-61.44-66.56-30.72-117.76 10.24-266.24 102.4-404.48s220.16-240.64 353.28-276.48c30.72-10.24 66.56 0 92.16 15.36l46.08 35.84c5.12 5.12 15.36 15.36 0 46.08-30.72 61.44-122.88 133.12-163.84 133.12-5.12 0-10.24 0-15.36-5.12l-40.96-25.6c-5.12-5.12-10.24-5.12-15.36-5.12-66.56 5.12-133.12 51.2-174.08 117.76-40.96 76.8-51.2 148.48-25.6 199.68l15.36 15.36 40.96 15.36c20.48 10.24 20.48 51.2 10.24 87.04-15.36 71.68-61.44 133.12-97.28 133.12z"  horiz-adv-x="1024" />

    
    <glyph glyph-name="ic_add" unicode="&#58964;" d="M490.666667 405.333333V896h42.666666v-490.666667h490.666667v-42.666666H533.333333v-490.666667h-42.666666V362.666667H0v42.666666h490.666667z"  horiz-adv-x="1024" />

    


  </font>
</defs>
</svg>
